<svg width="40" height="40" viewBox="0 0 40 40" fill="none" xmlns="http://www.w3.org/2000/svg">
<g clip-path="url(#clip0_205_1524)">
<path d="M39.9334 19.9667C39.9334 30.9816 30.9816 39.9334 19.9667 39.9334C8.95173 39.9334 0 30.9816 0 19.9667C0 8.95173 8.95173 0 19.9667 0C21.1813 0 22.4126 0.116472 23.594 0.332778C24.4925 0.499167 25.0915 1.36439 24.9251 2.26289C24.7587 3.16139 23.8935 3.76039 22.995 3.594C22.0133 3.41098 20.9817 3.32778 19.9667 3.32778C10.7986 3.32778 3.32778 10.7986 3.32778 19.9667C3.32778 29.1347 10.7986 36.6056 19.9667 36.6056C29.1347 36.6056 36.6056 29.1347 36.6056 19.9667C36.6056 18.9517 36.5058 17.9367 36.3394 16.9384C36.173 16.0399 36.772 15.1747 37.6705 15.0083C38.5856 14.8419 39.4342 15.4409 39.6006 16.3394C39.8169 17.5208 39.9334 18.752 39.9334 19.9667ZM21.3976 10.0832C22.3128 10.2163 23.1447 9.58401 23.2778 8.66887C23.4109 7.75373 22.7787 6.92178 21.8635 6.78867C21.2312 6.70548 20.599 6.65556 19.9667 6.65556C12.6289 6.65556 6.65556 12.6289 6.65556 19.9667C6.65556 27.3044 12.6289 33.2778 19.9667 33.2778C27.3044 33.2778 33.2778 27.3044 33.2778 19.9667C33.2778 19.3344 33.2279 18.7021 33.1447 18.0698C33.0116 17.1547 32.1796 16.5224 31.2645 16.6555C30.3494 16.7887 29.7171 17.6206 29.8502 18.5357C29.9167 19.0016 29.95 19.4842 29.95 19.9667C29.95 25.4742 25.4742 29.95 19.9667 29.95C14.4592 29.95 9.98334 25.4742 9.98334 19.9667C9.98334 14.4592 14.4592 9.98334 19.9667 9.98334C20.4492 9.98334 20.9317 10.0166 21.3976 10.0832ZM17.7537 17.4875C18.4359 16.8718 18.5025 15.8236 17.8868 15.1414C17.2712 14.4592 16.2229 14.3927 15.5407 15.0083C14.1264 16.2728 13.3278 18.0865 13.3278 19.9667C13.3278 23.6439 16.3061 26.6222 19.9833 26.6222C21.8802 26.6222 23.6772 25.8069 24.9417 24.4093C25.5574 23.7271 25.4908 22.6788 24.8086 22.0632C24.1264 21.4475 23.0782 21.5141 22.4625 22.1963C21.8302 22.8951 20.9317 23.3111 19.9833 23.3111C18.153 23.3111 16.6555 21.8136 16.6555 19.9833C16.6555 19.0349 17.0549 18.1364 17.7703 17.5041L17.7537 17.4875ZM20.4659 17.1214C19.8169 17.7703 19.8169 18.8186 20.4659 19.4675C20.7986 19.8003 21.2146 19.95 21.6472 19.95C22.0798 19.95 22.4958 19.7837 22.8286 19.4675L30.6655 11.6306H34.975C35.4242 11.6306 35.8402 11.4476 36.1563 11.1481L39.4841 7.82028C39.9666 7.33776 40.0998 6.62228 39.8502 6.00664C39.6006 5.391 38.985 4.97503 38.3194 4.97503H34.9916V1.66389C34.9916 0.998334 34.5923 0.382695 33.96 0.133111C33.3277 -0.133111 32.6289 0.0166389 32.1464 0.499167L28.8186 3.82695C28.5024 4.14309 28.3361 4.55906 28.3361 5.00831V9.31779L20.4991 17.1547L20.4659 17.1214Z" fill="#7AB4F1"/>
</g>
<defs>
<clipPath id="clip0_205_1524">
<rect width="39.9334" height="39.9334" fill="white"/>
</clipPath>
</defs>
</svg>
