<svg width="178" height="38" viewBox="0 0 178 38" fill="none" xmlns="http://www.w3.org/2000/svg">
<path d="M23.4748 11.9233L23.4927 18.8764M23.4927 18.8764L23.5498 25.7962M23.4927 18.8764H14.0332M24.0185 12.8327H18.1591L16.6612 10.2051M23.9997 24.8963L17.9973 24.9199L16.9244 27.2848" stroke="#1C2482" stroke-width="1.79974"/>
<path d="M27.5074 12.8327V18.8764M27.5074 18.8764V25.8207M27.5074 18.8764H36.9669M26.625 12.8327L32.841 12.8327L34.3389 10.2051M26.9811 24.9199H33.0027L34.0757 27.2848" stroke="#794CFA" stroke-width="1.79974"/>
<path d="M15.875 4.58301C17.4229 4.58314 18.6777 5.83874 18.6777 7.38672C18.6776 8.93458 17.4229 10.1893 15.875 10.1895C14.327 10.1895 13.0714 8.93466 13.0713 7.38672C13.0713 5.83866 14.3269 4.58301 15.875 4.58301Z" stroke="#1C2482" stroke-width="1.79974"/>
<path d="M35.125 4.58301C33.5771 4.58314 32.3223 5.83874 32.3223 7.38672C32.3224 8.93458 33.5771 10.1893 35.125 10.1895C36.673 10.1895 37.9286 8.93466 37.9287 7.38672C37.9287 5.83866 36.6731 4.58301 35.125 4.58301Z" stroke="#794CFA" stroke-width="1.79974"/>
<path d="M11.4316 15.6924C12.9796 15.6925 14.2344 16.9481 14.2344 18.4961C14.2342 20.044 12.9795 21.2987 11.4316 21.2988C9.88366 21.2988 8.62806 20.044 8.62793 18.4961C8.62793 16.948 9.88358 15.6924 11.4316 15.6924Z" stroke="#1C2482" stroke-width="1.79974"/>
<path d="M39.5684 15.6924C38.0204 15.6925 36.7656 16.9481 36.7656 18.4961C36.7658 20.044 38.0205 21.2987 39.5684 21.2988C41.1163 21.2988 42.3719 20.044 42.3721 18.4961C42.3721 16.948 41.1164 15.6924 39.5684 15.6924Z" stroke="#794CFA" stroke-width="1.79974"/>
<path d="M15.875 27.54C17.4229 27.5402 18.6777 28.7958 18.6777 30.3438C18.6776 31.8916 17.4229 33.1464 15.875 33.1465C14.327 33.1465 13.0714 31.8917 13.0713 30.3438C13.0713 28.7957 14.3269 27.54 15.875 27.54Z" stroke="#1C2482" stroke-width="1.79974"/>
<path d="M35.125 27.54C33.5771 27.5402 32.3223 28.7958 32.3223 30.3438C32.3224 31.8916 33.5771 33.1464 35.125 33.1465C36.673 33.1465 37.9286 31.8917 37.9287 30.3438C37.9287 28.7957 36.6731 27.54 35.125 27.54Z" stroke="#794CFA" stroke-width="1.79974"/>
<path d="M25.3789 31.1963C23.831 31.1964 22.5762 32.452 22.5762 34C22.5763 35.5479 23.831 36.8026 25.3789 36.8027C26.9269 36.8027 28.1825 35.5479 28.1826 34C28.1826 32.4519 26.927 31.1963 25.3789 31.1963Z" stroke="#1C2482" stroke-width="1.79974"/>
<path d="M25.3789 0.899414C23.831 0.899548 22.5762 2.15515 22.5762 3.70312C22.5763 5.25099 23.831 6.50573 25.3789 6.50586C26.9269 6.50586 28.1825 5.25107 28.1826 3.70312C28.1826 2.15507 26.927 0.899414 25.3789 0.899414Z" stroke="#1C2482" stroke-width="1.79974"/>
<path d="M66.9695 15.9825H63.0644C62.9931 15.4773 62.8474 15.0285 62.6275 14.6362C62.4076 14.238 62.1252 13.8992 61.7805 13.6198C61.4357 13.3405 61.0375 13.1265 60.5858 12.9779C60.14 12.8293 59.6555 12.755 59.1325 12.755C58.1874 12.755 57.3642 12.9898 56.6628 13.4593C55.9614 13.923 55.4175 14.6006 55.0312 15.4922C54.6448 16.3778 54.4516 17.4537 54.4516 18.7197C54.4516 20.0214 54.6448 21.1151 55.0312 22.0008C55.4235 22.8864 55.9703 23.5551 56.6717 24.0069C57.3731 24.4586 58.1844 24.6845 59.1057 24.6845C59.6228 24.6845 60.1013 24.6161 60.5412 24.4794C60.987 24.3427 61.3823 24.1436 61.727 23.882C62.0717 23.6146 62.3571 23.2906 62.5829 22.9102C62.8147 22.5298 62.9752 22.0959 63.0644 21.6085L66.9695 21.6263C66.8685 22.4644 66.6159 23.2728 66.2117 24.0514C65.8135 24.8241 65.2755 25.5166 64.5979 26.1288C63.9263 26.7351 63.1238 27.2166 62.1906 27.5732C61.2634 27.9239 60.2143 28.0993 59.0433 28.0993C57.4147 28.0993 55.9584 27.7307 54.6745 26.9937C53.3966 26.2566 52.3861 25.1897 51.6431 23.7929C50.9061 22.396 50.5375 20.705 50.5375 18.7197C50.5375 16.7285 50.912 15.0345 51.6609 13.6377C52.4099 12.2408 53.4263 11.1769 54.7102 10.4458C55.9941 9.70872 57.4385 9.3402 59.0433 9.3402C60.1013 9.3402 61.0821 9.4888 61.9856 9.78599C62.895 10.0832 63.7004 10.5171 64.4018 11.0877C65.1032 11.6524 65.6738 12.3449 66.1136 13.1651C66.5594 13.9854 66.8447 14.9245 66.9695 15.9825ZM75.8542 28.1171C74.4693 28.1171 73.2716 27.8229 72.2611 27.2344C71.2566 26.64 70.4809 25.8138 69.9341 24.7558C69.3872 23.6918 69.1138 22.4585 69.1138 21.0557C69.1138 19.641 69.3872 18.4047 69.9341 17.3467C70.4809 16.2827 71.2566 15.4565 72.2611 14.8681C73.2716 14.2737 74.4693 13.9765 75.8542 13.9765C77.2392 13.9765 78.4339 14.2737 79.4384 14.8681C80.4489 15.4565 81.2276 16.2827 81.7744 17.3467C82.3212 18.4047 82.5947 19.641 82.5947 21.0557C82.5947 22.4585 82.3212 23.6918 81.7744 24.7558C81.2276 25.8138 80.4489 26.64 79.4384 27.2344C78.4339 27.8229 77.2392 28.1171 75.8542 28.1171ZM75.8721 25.1748C76.5021 25.1748 77.0282 24.9965 77.4502 24.6399C77.8722 24.2773 78.1902 23.784 78.4042 23.1598C78.6241 22.5357 78.7341 21.8254 78.7341 21.0289C78.7341 20.2325 78.6241 19.5222 78.4042 18.898C78.1902 18.2739 77.8722 17.7806 77.4502 17.418C77.0282 17.0554 76.5021 16.8741 75.8721 16.8741C75.2361 16.8741 74.7011 17.0554 74.2672 17.418C73.8393 17.7806 73.5153 18.2739 73.2954 18.898C73.0814 19.5222 72.9744 20.2325 72.9744 21.0289C72.9744 21.8254 73.0814 22.5357 73.2954 23.1598C73.5153 23.784 73.8393 24.2773 74.2672 24.6399C74.7011 24.9965 75.2361 25.1748 75.8721 25.1748ZM91.2342 33.2705C90.0038 33.2705 88.9487 33.1011 88.069 32.7623C87.1953 32.4294 86.4998 31.9747 85.9827 31.3981C85.4656 30.8216 85.1298 30.1737 84.9752 29.4545L88.4881 28.9819C88.5951 29.2553 88.7645 29.5109 88.9963 29.7487C89.2281 29.9865 89.5342 30.1767 89.9146 30.3193C90.301 30.4679 90.7705 30.5422 91.3233 30.5422C92.1495 30.5422 92.8301 30.3401 93.3651 29.9359C93.906 29.5377 94.1764 28.869 94.1764 27.9299V25.4245H94.0159C93.8495 25.8049 93.5999 26.1645 93.267 26.5033C92.9341 26.8421 92.5062 27.1185 91.9831 27.3325C91.46 27.5465 90.8359 27.6535 90.1108 27.6535C89.0825 27.6535 88.1463 27.4157 87.3023 26.9402C86.4642 26.4587 85.7955 25.7247 85.2962 24.738C84.8028 23.7453 84.5562 22.4912 84.5562 20.9754C84.5562 19.4241 84.8088 18.1283 85.314 17.0881C85.8193 16.0479 86.4909 15.2693 87.329 14.7522C88.173 14.235 89.0973 13.9765 90.1019 13.9765C90.8686 13.9765 91.5106 14.1072 92.0277 14.3688C92.5448 14.6244 92.9609 14.9453 93.2759 15.3317C93.5969 15.7121 93.8436 16.0866 94.0159 16.4551H94.1586V14.1548H97.93V27.9833C97.93 29.1484 97.6447 30.1232 97.0741 30.9078C96.5035 31.6924 95.7129 32.2808 94.7025 32.6731C93.6979 33.0714 92.5418 33.2705 91.2342 33.2705ZM91.3144 24.8004C91.9266 24.8004 92.4438 24.6488 92.8658 24.3457C93.2937 24.0366 93.6207 23.5967 93.8465 23.0261C94.0783 22.4495 94.1943 21.76 94.1943 20.9576C94.1943 20.1552 94.0813 19.4597 93.8554 18.8713C93.6296 18.2769 93.3027 17.8162 92.8747 17.4893C92.4467 17.1624 91.9266 16.999 91.3144 16.999C90.6903 16.999 90.1643 17.1684 89.7363 17.5072C89.3083 17.84 88.9844 18.3037 88.7645 18.898C88.5445 19.4924 88.4346 20.179 88.4346 20.9576C88.4346 21.7482 88.5445 22.4317 88.7645 23.0083C88.9903 23.5789 89.3143 24.0217 89.7363 24.3367C90.1643 24.6458 90.6903 24.8004 91.3144 24.8004ZM104.751 19.9323V27.8496H100.953V14.1548H104.572V16.571H104.733C105.036 15.7745 105.544 15.1444 106.257 14.6808C106.971 14.2113 107.836 13.9765 108.852 13.9765C109.803 13.9765 110.632 14.1845 111.34 14.6006C112.047 15.0167 112.597 15.611 112.989 16.3838C113.381 17.1505 113.577 18.0659 113.577 19.1299V27.8496H109.779V19.8075C109.785 18.9694 109.571 18.3155 109.137 17.846C108.703 17.3705 108.106 17.1327 107.345 17.1327C106.834 17.1327 106.382 17.2427 105.99 17.4626C105.604 17.6825 105.3 18.0035 105.081 18.4255C104.867 18.8416 104.757 19.3438 104.751 19.9323ZM116.571 27.8496V14.1548H120.369V27.8496H116.571ZM118.479 12.3894C117.914 12.3894 117.43 12.2022 117.026 11.8277C116.627 11.4473 116.428 10.9926 116.428 10.4636C116.428 9.94054 116.627 9.49177 117.026 9.1173C117.43 8.73689 117.914 8.54668 118.479 8.54668C119.044 8.54668 119.525 8.73689 119.923 9.1173C120.328 9.49177 120.53 9.94054 120.53 10.4636C120.53 10.9926 120.328 11.4473 119.923 11.8277C119.525 12.2022 119.044 12.3894 118.479 12.3894ZM132.461 32.9852V25.6563H132.345C132.167 26.0367 131.914 26.4141 131.588 26.7886C131.267 27.1571 130.848 27.4633 130.33 27.707C129.819 27.9507 129.195 28.0725 128.458 28.0725C127.418 28.0725 126.476 27.805 125.632 27.2701C124.794 26.7292 124.128 25.9357 123.635 24.8895C123.147 23.8375 122.903 22.5476 122.903 21.02C122.903 19.4508 123.156 18.1461 123.661 17.1059C124.167 16.0598 124.838 15.2782 125.676 14.7611C126.52 14.238 127.445 13.9765 128.449 13.9765C129.216 13.9765 129.855 14.1072 130.366 14.3688C130.883 14.6244 131.299 14.9453 131.614 15.3317C131.935 15.7121 132.179 16.0866 132.345 16.4551H132.506V14.1548H136.251V32.9852H132.461ZM129.662 25.05C130.274 25.05 130.791 24.8836 131.213 24.5507C131.641 24.2119 131.968 23.7394 132.194 23.1331C132.426 22.5268 132.542 21.8165 132.542 21.0022C132.542 20.1879 132.429 19.4805 132.203 18.8802C131.977 18.2799 131.65 17.8162 131.222 17.4893C130.794 17.1624 130.274 16.999 129.662 16.999C129.038 16.999 128.512 17.1684 128.084 17.5072C127.656 17.846 127.332 18.3155 127.112 18.9159C126.892 19.5162 126.782 20.2117 126.782 21.0022C126.782 21.7987 126.892 22.503 127.112 23.1153C127.338 23.7215 127.662 24.1971 128.084 24.5418C128.512 24.8806 129.038 25.05 129.662 25.05ZM148.329 27.8496H144.192L150.496 9.58984H155.471L161.766 27.8496H157.629L153.055 13.7625H152.912L148.329 27.8496ZM148.071 20.6723H157.843V23.6859H148.071V20.6723ZM167.824 9.58984V27.8496H163.963V9.58984H167.824Z" fill="url(#paint0_linear_286_994)"/>
<defs>
<linearGradient id="paint0_linear_286_994" x1="49.2715" y1="18.8496" x2="170.271" y2="18.8496" gradientUnits="userSpaceOnUse">
<stop stop-color="#1C2482"/>
<stop offset="0.734792" stop-color="#361AB0"/>
<stop offset="1" stop-color="#794CFA"/>
</linearGradient>
</defs>
</svg>
