<svg width="1440" height="857" viewBox="0 0 1440 857" fill="none" xmlns="http://www.w3.org/2000/svg">
<g clip-path="url(#clip0_205_1498)">
<path d="M0 -148V1292" stroke="#F2F3FF"/>
<path d="M60 -148V1292" stroke="#F2F3FF"/>
<path d="M120 -148V1292" stroke="#F2F3FF"/>
<path d="M180 -148V1292" stroke="#F2F3FF"/>
<path d="M240 -148V1292" stroke="#F2F3FF"/>
<path d="M300 -148V1292" stroke="#F2F3FF"/>
<path d="M360 -148V1292" stroke="#F2F3FF"/>
<path d="M420 -148V1292" stroke="#F2F3FF"/>
<path d="M480 -148V1292" stroke="#F2F3FF"/>
<path d="M540 -148V1292" stroke="#F2F3FF"/>
<path d="M600 -148V1292" stroke="#F2F3FF"/>
<path d="M660 -148V1292" stroke="#F2F3FF"/>
<path d="M720 -148V1292" stroke="#F2F3FF"/>
<path d="M780 -148V1292" stroke="#F2F3FF"/>
<path d="M840 -148V1292" stroke="#F2F3FF"/>
<path d="M900 -148V1292" stroke="#F2F3FF"/>
<path d="M960 -148V1292" stroke="#F2F3FF"/>
<path d="M1020 -148V1292" stroke="#F2F3FF"/>
<path d="M1080 -148V1292" stroke="#F2F3FF"/>
<path d="M1140 -148V1292" stroke="#F2F3FF"/>
<path d="M1200 -148V1292" stroke="#F2F3FF"/>
<path d="M1260 -148V1292" stroke="#F2F3FF"/>
<path d="M1320 -148V1292" stroke="#F2F3FF"/>
<path d="M1380 -148V1292" stroke="#F2F3FF"/>
<path d="M1440 -148V1292" stroke="#F2F3FF"/>
<path d="M-240 32L1680 32" stroke="#F2F3FF"/>
<path d="M-240 92L1680 92" stroke="#F2F3FF"/>
<path d="M-240 152L1680 152" stroke="#F2F3FF"/>
<path d="M-240 212L1680 212" stroke="#F2F3FF"/>
<path d="M-240 272L1680 272" stroke="#F2F3FF"/>
<path d="M-240 332L1680 332" stroke="#F2F3FF"/>
<path d="M-240 392L1680 392" stroke="#F2F3FF"/>
<path d="M-240 452L1680 452" stroke="#F2F3FF"/>
<path d="M-240 512L1680 512" stroke="#F2F3FF"/>
<path d="M-240 572L1680 572" stroke="#F2F3FF"/>
<path d="M-240 632L1680 632" stroke="#F2F3FF"/>
<path d="M-240 692L1680 692" stroke="#F2F3FF"/>
<path d="M-240 752L1680 752" stroke="#F2F3FF"/>
<path d="M-240 812L1680 812" stroke="#F2F3FF"/>
<g filter="url(#filter0_f_205_1498)">
<ellipse cx="720.5" cy="474" rx="512.5" ry="359" fill="#F2F2F2" fill-opacity="0.85"/>
</g>
<path d="M360 105L363.511 95.5112L373 92L363.511 88.4888L360 79L356.489 88.4888L347 92L356.489 95.5112L360 105Z" fill="#C5B1FF" fill-opacity="0.45"/>
<path d="M1080 105L1076.49 95.5112L1067 92L1076.49 88.4888L1080 79L1083.51 88.4888L1093 92L1083.51 95.5112L1080 105Z" fill="#C5B1FF" fill-opacity="0.45"/>
<path d="M60 444L62.1607 449.839L68 452L62.1607 454.161L60 460L57.8393 454.161L52 452L57.8393 449.839L60 444Z" fill="#C5B1FF" fill-opacity="0.45"/>
<path d="M1380 444L1377.84 449.839L1372 452L1377.84 454.161L1380 460L1382.16 454.161L1388 452L1382.16 449.839L1380 444Z" fill="#C5B1FF" fill-opacity="0.45"/>
<path d="M119.707 280.018L121.868 274.178L127.707 272.018L121.868 269.857L119.707 264.018L117.546 269.857L111.707 272.018L117.546 274.178L119.707 280.018Z" fill="#C5B1FF" fill-opacity="0.45"/>
<path d="M1320 279L1317.84 273.161L1312 271L1317.84 268.839L1320 263L1322.16 268.839L1328 271L1322.16 273.161L1320 279Z" fill="#C5B1FF" fill-opacity="0.45"/>
<path d="M300.5 507L301.985 511.015L306 512.5L301.985 513.985L300.5 518L299.015 513.985L295 512.5L299.015 511.015L300.5 507Z" fill="#C5B1FF" fill-opacity="0.45"/>
<path d="M1138.5 507L1137.01 511.015L1133 512.5L1137.01 513.985L1138.5 518L1139.99 513.985L1144 512.5L1139.99 511.015L1138.5 507Z" fill="#C5B1FF" fill-opacity="0.45"/>
<path d="M304.5 337L305.985 332.985L310 331.5L305.985 330.015L304.5 326L303.015 330.015L299 331.5L303.015 332.985L304.5 337Z" fill="#C5B1FF" fill-opacity="0.45"/>
<path d="M1134.5 337L1133.01 332.985L1129 331.5L1133.01 330.015L1134.5 326L1135.99 330.015L1140 331.5L1135.99 332.985L1134.5 337Z" fill="#C5B1FF" fill-opacity="0.45"/>
<rect width="1440" height="153" transform="translate(0 727)" fill="url(#paint0_linear_205_1498)"/>
<path d="M180 739L183.511 748.489L193 752L183.511 755.511L180 765L176.489 755.511L167 752L176.489 748.489L180 739Z" fill="#C5B1FF" fill-opacity="0.45"/>
<path d="M1260.71 738.018L1257.2 747.506L1247.71 751.018L1257.2 754.529L1260.71 764.018L1264.22 754.529L1273.71 751.018L1264.22 747.506L1260.71 738.018Z" fill="#C5B1FF" fill-opacity="0.45"/>
</g>
<defs>
<filter id="filter0_f_205_1498" x="48" y="-45" width="1345" height="1038" filterUnits="userSpaceOnUse" color-interpolation-filters="sRGB">
<feFlood flood-opacity="0" result="BackgroundImageFix"/>
<feBlend mode="normal" in="SourceGraphic" in2="BackgroundImageFix" result="shape"/>
<feGaussianBlur stdDeviation="80" result="effect1_foregroundBlur_205_1498"/>
</filter>
<linearGradient id="paint0_linear_205_1498" x1="720" y1="0" x2="720" y2="127" gradientUnits="userSpaceOnUse">
<stop stop-color="#F2F3FB" stop-opacity="0"/>
<stop offset="1" stop-color="white"/>
</linearGradient>
<clipPath id="clip0_205_1498">
<rect width="1440" height="857" fill="white"/>
</clipPath>
</defs>
</svg>
