<svg width="42" height="42" viewBox="0 0 42 42" fill="none" xmlns="http://www.w3.org/2000/svg">
<path d="M15.4414 10.9883C15.9929 11.3162 16.7287 11.0254 16.9314 10.4098L16.9668 10.2725L16.9664 10.2716C16.9876 10.15 16.9719 10.0352 16.8713 9.75404C16.7706 9.4726 16.5778 9.00693 16.2274 8.17522L15.445 6.31767L15.4185 6.30009L15.1884 6.15644L15.1872 6.15591C14.7458 5.8868 14.2009 5.97175 13.8619 6.36818L13.8623 6.36908C13.8073 6.43078 13.7588 6.51642 13.7218 6.60159C13.684 6.68875 13.6545 6.78319 13.6408 6.86447L13.6396 6.86919L13.64 6.87009C13.6317 6.93582 13.6276 6.99814 13.6396 7.08055C13.6514 7.1609 13.6778 7.25699 13.7255 7.3927C13.8209 7.66359 14.0088 8.11306 14.3604 8.94775C14.6945 9.74087 14.8868 10.1894 15.0173 10.4567C15.1483 10.7251 15.2231 10.8242 15.3261 10.9081L15.4414 10.9883Z" fill="#2C2C2C" stroke="#2C2C2C" stroke-width="0.199827"/>
<path d="M9.1118 17.9704C9.92624 17.9496 10.3943 17.0757 9.9495 16.4021L9.95002 16.4008C9.87911 16.2873 9.74946 16.1969 9.4741 16.0609C9.19451 15.9228 8.74319 15.7285 8.0021 15.4166L8.00082 15.416C7.5136 15.2158 7.04532 15.0315 6.68241 14.8973C6.50114 14.8303 6.34519 14.7759 6.22614 14.7374C6.16668 14.7181 6.11551 14.7022 6.0743 14.6913C6.03646 14.6814 5.99786 14.6724 5.96854 14.6717L5.96763 14.6721C5.62612 14.6672 5.37059 14.7861 5.18293 15.038L5.1824 15.0393C4.99089 15.3036 4.9169 15.5932 4.96672 15.863C5.0168 16.1333 5.18853 16.3719 5.46441 16.5364C5.58448 16.608 5.85932 16.7334 6.19904 16.8792C6.54162 17.0262 6.95799 17.1965 7.36608 17.358C7.77406 17.5194 8.1755 17.6725 8.48786 17.7847C8.64395 17.8408 8.77967 17.8874 8.88262 17.9194C8.93379 17.9353 8.97819 17.9483 9.01396 17.957C9.04542 17.9647 9.08284 17.9726 9.11218 17.9713L9.1118 17.9704Z" fill="#2C2C2C" stroke="#2C2C2C" stroke-width="0.199827"/>
<path d="M26.3086 10.892C26.5498 10.8643 26.7847 10.7562 26.9392 10.5677C26.9551 10.5482 26.9728 10.5166 26.9899 10.4843C27.0086 10.449 27.0317 10.403 27.0577 10.3485C27.1098 10.2393 27.176 10.0921 27.2525 9.91803C27.4057 9.56958 27.5997 9.11018 27.7974 8.62304C28.0961 7.88415 28.2732 7.43108 28.3703 7.13788C28.4662 6.84837 28.4915 6.69528 28.4644 6.5663C28.3605 6.07872 27.9305 5.74754 27.4368 5.7645L27.4363 5.76577C27.264 5.76949 27.1177 5.80124 26.9851 5.87954C26.8535 5.95731 26.7435 6.07535 26.6342 6.23397C26.6045 6.27701 26.5609 6.36011 26.5101 6.465C26.4581 6.57238 26.3954 6.70992 26.3255 6.86691C26.1854 7.18123 26.0163 7.57675 25.8519 7.97388C25.6874 8.37096 25.5268 8.77026 25.4034 9.09265C25.3417 9.25382 25.2891 9.39672 25.2497 9.51027C25.2306 9.56553 25.2139 9.61557 25.2008 9.65837L25.1741 9.76348C25.146 9.92009 25.1881 10.1122 25.2643 10.282C25.3411 10.4531 25.4599 10.6203 25.6046 10.7225C25.8091 10.8679 26.0672 10.9196 26.3086 10.892Z" fill="#2C2C2C" stroke="#2C2C2C" stroke-width="0.199827"/>
<path d="M27.2669 27.0159C27.4912 26.9231 27.6577 26.7638 27.9464 26.3902L28.1875 26.0696C29.3576 24.4396 29.9505 22.4703 29.8742 20.4467C29.8265 19.1113 29.2886 17.3438 28.5696 16.18C27.0549 13.7189 24.4478 12.0856 21.635 11.8323L21.6341 11.8327C20.2681 11.7138 19.2859 11.816 18.084 12.2195L17.5531 12.4106C17.0212 12.6167 16.5056 12.8373 16.4011 12.8957L16.3984 12.8968C15.0764 13.6921 14.1105 14.5685 13.3796 15.634C11.9375 17.7321 11.4417 20.2151 11.9722 22.7276L11.9726 22.7285C12.1726 23.6448 12.7723 25.0365 13.305 25.8085L13.3062 25.809C14.7184 27.841 16.7022 29.1636 19.0453 29.6252L19.289 29.6703C19.5156 29.7065 19.6945 29.7159 19.8459 29.6892C20.0561 29.6522 20.2039 29.548 20.3493 29.3826C20.4884 29.2267 20.5771 29.0595 20.607 28.8776C20.637 28.6957 20.6069 28.5076 20.5244 28.3115C20.443 28.1184 20.3491 27.9832 20.16 27.8768C20.0258 27.8013 19.8449 27.7412 19.5927 27.6771L19.3159 27.611C16.8401 27.053 14.9225 25.2932 14.129 22.8645L14.0449 22.5791C13.8639 21.9041 13.7871 21.1733 13.8273 20.4149L13.8282 20.4145C13.9259 18.3346 14.9233 16.4775 16.6431 15.1682L16.644 15.1678C17.0718 14.8393 17.2817 14.7243 18.0405 14.4103C18.513 14.2113 18.837 14.09 19.1545 14.0086C19.4711 13.9273 19.7853 13.8856 20.2397 13.848C22.0496 13.7027 23.8898 14.2872 25.3019 15.4586L25.5136 15.6416C27.6471 17.5646 28.4021 20.5854 27.3989 23.2592C27.1435 23.9404 26.8899 24.3921 26.3619 25.0991L26.361 25.0995C26.2449 25.2585 26.137 25.4258 26.0546 25.5719C25.9758 25.7115 25.9137 25.845 25.8975 25.936L25.8971 25.9351C25.7375 26.7055 26.5381 27.3172 27.2669 27.0159Z" fill="#2C2C2C" stroke="#2C2C2C" stroke-width="0.199827"/>
<path d="M23.9636 28.3832C24.3115 28.2393 24.5298 27.9943 24.5877 27.6663L24.603 27.5215L24.6026 27.5206C24.6068 27.3549 24.5771 27.2073 24.3147 26.5428C24.0505 25.8736 23.5436 24.6644 22.5755 22.3661C21.4683 19.7377 20.9366 18.4687 20.6204 17.838C20.4632 17.5245 20.353 17.3542 20.2422 17.2547C20.1271 17.1514 20.0135 17.1281 19.8989 17.0913L19.8977 17.0908C19.5202 16.9751 19.0604 17.1464 18.8192 17.4789C18.756 17.5651 18.6698 17.6508 18.6506 17.7981C18.6324 17.9391 18.6727 18.1325 18.7848 18.4612C19.0114 19.1256 19.5625 20.4205 20.7076 23.139C21.7148 25.53 22.237 26.7661 22.5315 27.4212C22.8223 28.0679 22.8982 28.1696 23.0206 28.2577C23.3197 28.4728 23.6341 28.5195 23.9636 28.3832Z" fill="#2C2C2C" stroke="#2C2C2C" stroke-width="0.199827"/>
<path d="M8.64951 25.7647L8.65041 25.7644L10.5179 24.9705L10.5549 24.9552L10.5705 24.9191L10.6778 24.6708C10.8961 24.1661 10.7303 23.6085 10.266 23.351C10.1689 23.2971 10.0762 23.2534 9.96246 23.2367C9.84882 23.2201 9.72216 23.2317 9.55721 23.2733C9.23177 23.3556 8.71972 23.5628 7.78615 23.9491C6.96419 24.2892 6.52546 24.4745 6.27349 24.5993C6.14723 24.6619 6.06288 24.7112 5.99908 24.7604C5.93355 24.811 5.89217 24.8591 5.85084 24.9116L5.85031 24.9129C5.39051 25.5227 5.73331 26.4042 6.48494 26.5251L6.48622 26.5256C6.54861 26.5348 6.6084 26.5391 6.69109 26.5265C6.77055 26.5144 6.86884 26.4872 7.00944 26.437C7.29048 26.3367 7.76461 26.1379 8.64951 25.7647Z" fill="#2C2C2C" stroke="#2C2C2C" stroke-width="0.199827"/>
<path d="M34.4989 15.0663C34.7831 14.9365 34.9039 14.8603 34.9808 14.7665C35.2405 14.4565 35.2452 14.0444 35.0921 13.7175C34.939 13.3906 34.6197 13.1306 34.2141 13.1349L34.2132 13.1353C34.1486 13.1362 34.0426 13.1611 33.9203 13.1973C33.7929 13.235 33.6337 13.289 33.4541 13.3532C33.0942 13.4819 32.6488 13.655 32.2088 13.8357C31.7687 14.0165 31.3325 14.2059 30.9907 14.3651C30.82 14.4446 30.6716 14.5171 30.5579 14.578C30.5011 14.6085 30.4515 14.6367 30.412 14.6617C30.3743 14.6855 30.3392 14.7101 30.3154 14.7344L30.314 14.736C30.1544 14.9054 30.0677 15.1371 30.0527 15.3684C30.0377 15.5998 30.094 15.8407 30.2327 16.0273L30.2352 16.0305C30.2743 16.0792 30.3442 16.1369 30.4195 16.1889C30.497 16.2423 30.5891 16.2961 30.6783 16.3354L30.9675 16.4736L31.0075 16.493L31.0481 16.4762L32.9254 15.7206L33.9054 15.3203C34.1618 15.214 34.354 15.1325 34.4989 15.0663Z" fill="#2C2C2C" stroke="#2C2C2C" stroke-width="0.199827"/>
<path d="M25.2271 31.9417C27.1346 31.1524 28.1263 30.7405 28.6579 30.502C29.1843 30.2658 29.2799 30.1924 29.367 30.0722L29.366 30.0726C29.7926 29.4876 29.5314 28.7363 28.8682 28.5211L28.7302 28.4852L28.4683 28.4319L28.4384 28.4263L24.4364 30.0822C22.646 30.8231 21.6482 31.2393 21.0796 31.4913C20.7958 31.6171 20.6161 31.7033 20.4973 31.7692C20.378 31.8354 20.3139 31.8843 20.2663 31.9378L20.2654 31.9381C20.0828 32.1464 20.0224 32.4333 20.061 32.7033C20.0997 32.9734 20.239 33.2391 20.472 33.4072C20.5661 33.4757 20.6566 33.5523 20.7997 33.5739C20.938 33.5947 21.1164 33.5645 21.4 33.4745C21.9711 33.2933 23.0396 32.8468 25.2271 31.9417Z" fill="#2C2C2C" stroke="#2C2C2C" stroke-width="0.199827"/>
<path d="M26.666 35.4297C27.9001 34.919 28.5865 34.6316 28.982 34.4502C29.3721 34.2714 29.4957 34.1893 29.5846 34.0846L29.5855 34.0843C29.7175 33.9317 29.8011 33.7738 29.8282 33.6013C29.8552 33.4287 29.8237 33.2511 29.7441 33.0622C29.6646 32.8735 29.5595 32.727 29.4168 32.6248C29.274 32.5225 29.102 32.4704 28.8997 32.4562L28.8992 32.4575C28.7615 32.4464 28.6176 32.4742 28.2137 32.6238C27.8047 32.7753 27.1132 33.0581 25.8699 33.5725C24.6773 34.066 23.9879 34.3566 23.5796 34.5424C23.1769 34.7256 23.0316 34.8129 22.9478 34.9042L22.9464 34.9058C22.6854 35.2048 22.6707 35.6093 22.8108 35.9374C22.9509 36.2654 23.2536 36.5357 23.6496 36.5552L23.6506 36.5548C23.7823 36.5605 23.9504 36.5187 24.3654 36.3626C24.7861 36.2044 25.477 35.9217 26.666 35.4297Z" fill="#2C2C2C" stroke="#2C2C2C" stroke-width="0.199827"/>
</svg>
