<svg width="29" height="29" viewBox="0 0 29 29" fill="none" xmlns="http://www.w3.org/2000/svg">
<path d="M24.5683 2.25814V7.50814M27.1933 4.88314H21.9433M3.56831 20.6331V23.2581M4.88081 21.9456H2.25581M11.3606 18.6644C11.2434 18.2102 11.0067 17.7957 10.675 17.464C10.3433 17.1323 9.92878 16.8955 9.47456 16.7783L1.42237 14.702C1.285 14.663 1.16409 14.5802 1.07799 14.4663C0.991894 14.3524 0.945312 14.2134 0.945312 14.0706C0.945312 13.9278 0.991894 13.7889 1.07799 13.675C1.16409 13.5611 1.285 13.4783 1.42237 13.4393L9.47456 11.3616C9.92862 11.2446 10.343 11.008 10.6747 10.6766C11.0064 10.3451 11.2432 9.93087 11.3606 9.47689L13.437 1.4247C13.4756 1.28678 13.5583 1.16528 13.6724 1.07872C13.7865 0.992164 13.9257 0.945312 14.069 0.945312C14.2122 0.945312 14.3515 0.992164 14.4656 1.07872C14.5797 1.16528 14.6623 1.28678 14.7009 1.4247L16.776 9.47689C16.8932 9.93111 17.1299 10.3456 17.4616 10.6773C17.7933 11.009 18.2078 11.2458 18.6621 11.363L26.7142 13.438C26.8527 13.4762 26.9748 13.5588 27.0619 13.6731C27.1489 13.7873 27.196 13.927 27.196 14.0706C27.196 14.2143 27.1489 14.354 27.0619 14.4682C26.9748 14.5825 26.8527 14.6651 26.7142 14.7033L18.6621 16.7783C18.2078 16.8955 17.7933 17.1323 17.4616 17.464C17.1299 17.7957 16.8932 18.2102 16.776 18.6644L14.6996 26.7166C14.661 26.8545 14.5784 26.976 14.4643 27.0626C14.3502 27.1491 14.2109 27.196 14.0677 27.196C13.9244 27.196 13.7851 27.1491 13.671 27.0626C13.5569 26.976 13.4743 26.8545 13.4357 26.7166L11.3606 18.6644Z" stroke="#794CFA" stroke-width="1.89" stroke-linecap="round" stroke-linejoin="round"/>
</svg>
