<svg width="25" height="25" viewBox="0 0 25 25" fill="none" xmlns="http://www.w3.org/2000/svg">
<path d="M18.0173 17.45V22.7102C18.0173 23.0627 17.7869 23.3614 17.469 23.4629M18.0173 17.45L11.2648 12.5M18.0173 17.45V7.55M17.469 23.4629C17.3936 23.487 17.3133 23.5 17.2299 23.5C17.0311 23.5 16.8397 23.4247 16.6941 23.2889L7.82147 15.0242M17.469 23.4629L22.8521 21.0414C23.2463 20.8641 23.5 20.4712 23.5 20.0378V4.96227C23.5 4.52888 23.2463 4.13589 22.8521 3.95857L17.469 1.53707M11.2648 12.5L7.82147 9.97583M11.2648 12.5L18.0173 7.55M18.0173 7.55V2.28983C18.0173 1.93724 17.7869 1.6386 17.469 1.53707M7.82147 9.97583L3.97617 7.03339C3.53959 6.69932 2.92399 6.74068 2.53573 7.13016L1.82118 7.84697C1.38325 8.28626 1.39463 9.00195 1.8463 9.42702L5.11164 12.5M7.82147 9.97583L16.6941 1.71105C16.8397 1.57539 17.0311 1.5 17.2299 1.5C17.3133 1.5 17.3936 1.51299 17.469 1.53707M5.11164 12.5L1.8463 15.573C1.39463 15.998 1.38325 16.7138 1.82118 17.153L2.53573 17.8699C2.92399 18.2593 3.53959 18.3006 3.97617 17.9666L7.82147 15.0242M5.11164 12.5L7.82147 15.0242" stroke="white" stroke-width="1.5" stroke-linecap="round" stroke-linejoin="round"/>
</svg>
