<svg width="25" height="25" viewBox="0 0 25 25" fill="none" xmlns="http://www.w3.org/2000/svg">
<g clip-path="url(#clip0_649_4651)">
<path d="M19.4474 0.5V4.1M5.55263 0.5V4.1M2.07895 7.7H22.9211M10.7632 2.3H14.2368C18.6035 2.3 20.7869 2.3 22.1434 3.70588C23.5 5.11178 23.5 7.37451 23.5 11.9V14.9C23.5 19.4254 23.5 21.6883 22.1434 23.0941C20.7869 24.5 18.6035 24.5 14.2368 24.5H10.7632C6.39646 24.5 4.21312 24.5 2.85655 23.0941C1.5 21.6883 1.5 19.4254 1.5 14.9V11.9C1.5 7.37451 1.5 5.11178 2.85655 3.70588C4.21312 2.3 6.39646 2.3 10.7632 2.3ZM8.38202 15.5338C10.2451 15.2935 11.7218 13.7631 11.9537 11.8323C11.9888 11.54 12.2157 11.3 12.5 11.3C12.7843 11.3 13.0112 11.54 13.0463 11.8323C13.2782 13.7631 14.7549 15.2935 16.6179 15.5338C16.9 15.5702 17.1316 15.8054 17.1316 16.1C17.1316 16.3946 16.9 16.6298 16.6179 16.6662C14.7549 16.9065 13.2782 18.4369 13.0463 20.3677C13.0112 20.66 12.7843 20.9 12.5 20.9C12.2157 20.9 11.9888 20.66 11.9537 20.3677C11.7218 18.4369 10.2451 16.9065 8.38202 16.6662C8.09998 16.6298 7.86842 16.3946 7.86842 16.1C7.86842 15.8054 8.09998 15.5702 8.38202 15.5338Z" stroke="white" stroke-width="1.5" stroke-linecap="round" stroke-linejoin="round"/>
</g>
<defs>
<clipPath id="clip0_649_4651">
<rect width="25" height="25" fill="white"/>
</clipPath>
</defs>
</svg>
