<svg width="25" height="25" viewBox="0 0 25 25" fill="none" xmlns="http://www.w3.org/2000/svg">
<g clip-path="url(#clip0_649_4641)">
<path d="M18.2693 13.874L17.5588 13.634L17.5588 13.6341L18.2693 13.874ZM19.4083 12.9103L19.7192 13.5928L19.7192 13.5928L19.4083 12.9103ZM20.4831 12.5207L20.4227 11.7731L20.4226 11.7731L20.4831 12.5207ZM21.3485 12.7068L20.9815 13.3609L20.9816 13.3609L21.3485 12.7068ZM22.1764 13.5632L22.7554 13.0866L22.7554 13.0865L22.1764 13.5632ZM24.0815 16.384L23.358 16.5816L23.358 16.5816L24.0815 16.384ZM24.0815 18.2473L23.358 18.0496L23.358 18.0497L24.0815 18.2473ZM22.1187 21.1381L21.5397 20.6614V20.6614L22.1187 21.1381ZM21.3485 21.9245L21.7156 22.5785L21.7156 22.5785L21.3485 21.9245ZM20.4831 22.1106L20.4226 22.8582L20.4227 22.8582L20.4831 22.1106ZM19.4083 21.721L19.7192 21.0385L19.7192 21.0385L19.4083 21.721ZM18.2693 20.7572L17.5588 20.9972L17.5588 20.9973L18.2693 20.7572ZM9.72798 22.7761C9.43001 22.4884 8.95521 22.4967 8.66748 22.7947C8.37974 23.0926 8.38803 23.5674 8.686 23.8552L9.20699 23.3157L9.72798 22.7761ZM15.7279 23.8552C16.0259 23.5674 16.0342 23.0926 15.7465 22.7947C15.4587 22.4967 14.9839 22.4884 14.686 22.7761L15.207 23.3157L15.7279 23.8552ZM5.7701 13.3223L5.27793 13.8882L5.27794 13.8882L5.7701 13.3223ZM5.0057 12.9104L5.31664 12.2279L5.3165 12.2279L5.0057 12.9104ZM3.9308 12.5209L3.99131 11.7734L3.9913 11.7734L3.9308 12.5209ZM2.23758 13.5634L1.6586 13.0866L1.65857 13.0866L2.23758 13.5634ZM0.332383 16.384L1.05587 16.5816L1.05587 16.5816L0.332383 16.384ZM0.332383 18.2473L1.05587 18.0497L1.05587 18.0497L0.332383 18.2473ZM2.29527 21.1379L2.87428 20.6612H2.87428L2.29527 21.1379ZM3.9308 22.1104L3.8703 21.3628L3.87029 21.3628L3.9308 22.1104ZM5.0057 21.7207L4.69492 21.0382L4.69477 21.0382L5.0057 21.7207ZM5.7701 21.309L5.27794 20.7431L5.27793 20.7431L5.7701 21.309ZM-0.542969 17.3156C-0.542969 17.7299 -0.207182 18.0656 0.207031 18.0656C0.621245 18.0656 0.957031 17.7299 0.957031 17.3156H0.207031H-0.542969ZM24.2069 12.5156H23.4569V12.5157L24.2069 12.5156ZM23.457 17.3157C23.457 17.7299 23.7928 18.0657 24.2071 18.0656C24.6213 18.0656 24.957 17.7298 24.957 17.3156L24.207 17.3156L23.457 17.3157ZM7.93926 10.7495L8.03185 11.4937L8.03191 11.4937L7.93926 10.7495ZM11.6408 7.04795L12.3851 7.1406L12.3851 7.14053L11.6408 7.04795ZM12.7731 7.04795L12.0289 7.14053L12.0289 7.1406L12.7731 7.04795ZM16.4746 10.7495L16.382 11.4937L16.3821 11.4937L16.4746 10.7495ZM16.4746 11.8818L16.3821 11.1375L16.382 11.1375L16.4746 11.8818ZM12.7731 15.5833L12.0289 15.4907L12.0289 15.4907L12.7731 15.5833ZM11.6408 15.5833L12.3851 15.4907L12.3851 15.4907L11.6408 15.5833ZM7.93926 11.8818L8.03191 11.1375L8.03185 11.1375L7.93926 11.8818ZM18.2069 14.681H18.9569C18.9569 14.2136 18.9663 14.1543 18.9799 14.114L18.2693 13.874L17.5588 13.6341C17.4476 13.9634 17.4569 14.3189 17.4569 14.681H18.2069ZM18.2693 13.874L18.9799 14.1141C19.0099 14.0252 19.0606 13.9572 19.1673 13.8799C19.2961 13.7865 19.4594 13.7112 19.7192 13.5928L19.4083 12.9103L19.0973 12.2278C18.6853 12.4155 17.8614 12.7381 17.5588 13.634L18.2693 13.874ZM19.4083 12.9103L19.7192 13.5928C20.3121 13.3227 20.4395 13.2767 20.5436 13.2682L20.4831 12.5207L20.4226 11.7731C19.9929 11.8079 19.5817 12.0071 19.0973 12.2278L19.4083 12.9103ZM20.4831 12.5207L20.5435 13.2682C20.7016 13.2555 20.8558 13.2903 20.9815 13.3609L21.3485 12.7068L21.7156 12.0527C21.3234 11.8327 20.8706 11.7369 20.4227 11.7731L20.4831 12.5207ZM21.3485 12.7068L20.9816 13.3609C21.0453 13.3966 21.125 13.4637 21.2343 13.5888C21.3698 13.744 21.426 13.8318 21.5974 14.04L22.1764 13.5632L22.7554 13.0865C22.6817 12.997 22.4956 12.7528 22.3643 12.6024C22.2067 12.4219 21.9951 12.2096 21.7155 12.0527L21.3485 12.7068ZM22.1764 13.5632L21.5974 14.0399C22.1705 14.7361 22.5737 15.2267 22.8626 15.6368C23.1463 16.0395 23.2865 16.3198 23.358 16.5816L24.0815 16.384L24.805 16.1863C24.6694 15.6899 24.4231 15.2474 24.0889 14.773C23.76 14.3061 23.3143 13.7654 22.7554 13.0866L22.1764 13.5632ZM24.0815 16.384L23.358 16.5816C23.4898 17.064 23.4898 17.5673 23.358 18.0496L24.0815 18.2473L24.805 18.445C25.0075 17.7038 25.0075 16.9275 24.805 16.1863L24.0815 16.384ZM24.0815 18.2473L23.358 18.0497C23.2442 18.4663 22.9967 18.8842 22.6558 19.3303C22.2942 19.8035 21.9406 20.1744 21.5397 20.6614L22.1187 21.1381L22.6977 21.6148C23.0032 21.2438 23.48 20.7222 23.8477 20.241C24.2361 19.7327 24.6168 19.1341 24.805 18.4449L24.0815 18.2473ZM22.1187 21.1381L21.5397 20.6614C21.1386 21.1486 21.0574 21.2278 20.9814 21.2705L21.3485 21.9245L21.7156 22.5785C22.0959 22.3651 22.3761 22.0054 22.6977 21.6148L22.1187 21.1381ZM21.3485 21.9245L20.9815 21.2704C20.8558 21.341 20.7016 21.3758 20.5435 21.363L20.4831 22.1106L20.4227 22.8582C20.8706 22.8944 21.3234 22.7986 21.7156 22.5785L21.3485 21.9245ZM20.4831 22.1106L20.5436 21.3631C20.4395 21.3546 20.3121 21.3086 19.7192 21.0385L19.4083 21.721L19.0973 22.4035C19.5817 22.6242 19.9929 22.8234 20.4226 22.8582L20.4831 22.1106ZM19.4083 21.721L19.7192 21.0385C19.4594 20.9201 19.2961 20.8448 19.1673 20.7514C19.0606 20.6741 19.0099 20.6061 18.9799 20.5172L18.2693 20.7572L17.5588 20.9973C17.8614 21.8932 18.6853 22.2158 19.0973 22.4035L19.4083 21.721ZM18.2693 20.7572L18.9799 20.5173C18.9663 20.477 18.9569 20.4177 18.9569 19.9502H18.2069H17.4569C17.4569 20.3124 17.4476 20.6679 17.5588 20.9972L18.2693 20.7572ZM18.2069 19.9502H18.9569V14.681H18.2069H17.4569V19.9502H18.2069ZM9.20699 23.3157L8.686 23.8552C10.6335 25.7358 13.7805 25.7358 15.7279 23.8552L15.207 23.3157L14.686 22.7761C13.3198 24.0955 11.0942 24.0955 9.72798 22.7761L9.20699 23.3157ZM6.207 14.681H6.957C6.957 14.1855 6.96992 13.3718 6.26226 12.7563L5.7701 13.3223L5.27794 13.8882C5.35792 13.9578 5.39443 14.0248 5.41877 14.1234C5.45022 14.2507 5.457 14.4105 5.457 14.681H6.207ZM5.7701 13.3223L6.26226 12.7564C6.00662 12.534 5.67959 12.3933 5.31664 12.2279L5.0057 12.9104L4.69476 13.5929C5.14622 13.7986 5.22643 13.8434 5.27793 13.8882L5.7701 13.3223ZM5.0057 12.9104L5.3165 12.2279C4.83212 12.0073 4.42089 11.8081 3.99131 11.7734L3.9308 12.5209L3.8703 13.2685C3.97447 13.2769 4.10192 13.323 4.6949 13.593L5.0057 12.9104ZM3.9308 12.5209L3.9913 11.7734C2.73942 11.672 2.06482 12.5933 1.6586 13.0866L2.23758 13.5634L2.81655 14.0401C3.33383 13.4119 3.5208 13.2402 3.87031 13.2685L3.9308 12.5209ZM2.23758 13.5634L1.65857 13.0866C1.0997 13.7654 0.653897 14.3061 0.324987 14.773C-0.00915498 15.2474 -0.255497 15.6899 -0.391106 16.1863L0.332383 16.384L1.05587 16.5816C1.12738 16.3198 1.26761 16.0396 1.55127 15.6369C1.84017 15.2268 2.24341 14.7362 2.81658 14.0401L2.23758 13.5634ZM0.332383 16.384L-0.391103 16.1863C-0.593591 16.9275 -0.593591 17.7038 -0.391103 18.445L0.332383 18.2473L1.05587 18.0497C0.924086 17.5673 0.924086 17.064 1.05587 16.5816L0.332383 16.384ZM0.332383 18.2473L-0.391106 18.445C-0.202835 19.1341 0.177856 19.7327 0.566293 20.2409C0.933899 20.722 1.41092 21.2437 1.71627 21.6146L2.29527 21.1379L2.87428 20.6612C2.4732 20.174 2.11982 19.8034 1.75811 19.3301C1.41723 18.8841 1.16969 18.4663 1.05587 18.0497L0.332383 18.2473ZM2.29527 21.1379L1.71627 21.6146C2.13028 22.1175 2.78974 22.9552 3.99132 22.8579L3.9308 22.1104L3.87029 21.3628C3.54214 21.3894 3.35085 21.24 2.87428 20.6612L2.29527 21.1379ZM3.9308 22.1104L3.99131 22.8579C4.42095 22.8232 4.83216 22.6239 5.31663 22.4032L5.0057 21.7207L4.69477 21.0382C4.10188 21.3083 3.97441 21.3544 3.8703 21.3628L3.9308 22.1104ZM5.0057 21.7207L5.31648 22.4033C5.67953 22.238 6.00656 22.0973 6.26226 21.8749L5.7701 21.309L5.27793 20.7431C5.22648 20.7878 5.14628 20.8326 4.69492 21.0382L5.0057 21.7207ZM5.7701 21.309L6.26226 21.8749C6.96993 21.2595 6.957 20.4457 6.957 19.9501H6.207H5.457C5.457 20.2207 5.45022 20.3806 5.41877 20.5079C5.39442 20.6065 5.35791 20.6735 5.27794 20.7431L5.7701 21.309ZM6.207 19.9501H6.957V14.681H6.207H5.457V19.9501H6.207ZM0.207031 17.3156H0.957031V12.5156H0.207031H-0.542969V17.3156H0.207031ZM0.207031 12.5156H0.957031C0.957031 6.30242 5.9938 1.26562 12.207 1.26562V0.515625V-0.234375C5.16537 -0.234375 -0.542969 5.474 -0.542969 12.5156H0.207031ZM12.207 0.515625V1.26562C18.4201 1.26562 23.4569 6.30242 23.4569 12.5156H24.2069H24.9569C24.9569 5.474 19.2485 -0.234375 12.207 -0.234375V0.515625ZM24.2069 12.5156L23.4569 12.5157L23.457 17.3157L24.207 17.3156L24.957 17.3156L24.9569 12.5156L24.2069 12.5156ZM7.93926 10.7495L8.03191 11.4937C10.3035 11.211 12.1023 9.41217 12.3851 7.1406L11.6408 7.04795L10.8966 6.9553C10.6986 8.54534 9.4367 9.80728 7.84662 10.0052L7.93926 10.7495ZM11.6408 7.04795L12.3851 7.14053C12.3822 7.16408 12.3714 7.18914 12.3475 7.2122C12.3209 7.23786 12.2711 7.26563 12.207 7.26563V6.51563V5.76563C11.4775 5.76563 10.9723 6.34643 10.8966 6.95538L11.6408 7.04795ZM12.207 6.51563V7.26563C12.1428 7.26563 12.0931 7.23786 12.0664 7.2122C12.0425 7.18914 12.0318 7.16408 12.0289 7.14053L12.7731 7.04795L13.5174 6.95538C13.4417 6.34643 12.9365 5.76563 12.207 5.76563V6.51563ZM12.7731 7.04795L12.0289 7.1406C12.3117 9.41216 14.1104 11.211 16.382 11.4937L16.4746 10.7495L16.5673 10.0052C14.9773 9.80728 13.7153 8.54535 13.5174 6.9553L12.7731 7.04795ZM16.4746 10.7495L16.3821 11.4937C16.3585 11.4908 16.3334 11.4801 16.3104 11.4562C16.2847 11.4295 16.2569 11.3798 16.2569 11.3156H17.0069H17.7569C17.7569 10.5861 17.1762 10.081 16.5672 10.0052L16.4746 10.7495ZM17.0069 11.3156H16.2569C16.2569 11.2515 16.2847 11.2017 16.3104 11.1751C16.3334 11.1512 16.3585 11.1405 16.3821 11.1375L16.4746 11.8818L16.5672 12.6261C17.1762 12.5503 17.7569 12.0451 17.7569 11.3156H17.0069ZM16.4746 11.8818L16.382 11.1375C14.1104 11.4203 12.3117 13.2191 12.0289 15.4907L12.7731 15.5833L13.5174 15.676C13.7153 14.0859 14.9773 12.824 16.5673 12.6261L16.4746 11.8818ZM12.7731 15.5833L12.0289 15.4907C12.0318 15.4672 12.0425 15.4421 12.0664 15.4191C12.0931 15.3934 12.1428 15.3656 12.207 15.3656V16.1156V16.8656C12.9365 16.8656 13.4417 16.2848 13.5174 15.6759L12.7731 15.5833ZM12.207 16.1156V15.3656C12.2711 15.3656 12.3209 15.3934 12.3475 15.4191C12.3714 15.4421 12.3822 15.4672 12.3851 15.4907L11.6408 15.5833L10.8966 15.6759C10.9723 16.2848 11.4775 16.8656 12.207 16.8656V16.1156ZM11.6408 15.5833L12.3851 15.4907C12.1023 13.2191 10.3035 11.4203 8.03191 11.1375L7.93926 11.8818L7.84662 12.6261C9.4367 12.824 10.6986 14.0859 10.8966 15.676L11.6408 15.5833ZM7.93926 11.8818L8.03185 11.1375C8.05543 11.1405 8.08051 11.1512 8.10357 11.1751C8.12924 11.2018 8.157 11.2515 8.157 11.3156H7.407H6.657C6.657 12.0451 7.2377 12.5503 7.84668 12.6261L7.93926 11.8818ZM7.407 11.3156H8.157C8.157 11.3797 8.12924 11.4295 8.10357 11.4561C8.08051 11.4801 8.05543 11.4908 8.03185 11.4937L7.93926 10.7495L7.84668 10.0052C7.2377 10.081 6.657 10.5862 6.657 11.3156H7.407Z" fill="white"/>
</g>
<defs>
<clipPath id="clip0_649_4641">
<rect width="25" height="25" fill="white"/>
</clipPath>
</defs>
</svg>
