<svg width="16" height="16" viewBox="0 0 16 16" fill="none" xmlns="http://www.w3.org/2000/svg">
<g clip-path="url(#clip0_649_4817)">
<path fill-rule="evenodd" clip-rule="evenodd" d="M4.70354 0.0981834C3.40123 0.156943 2.27246 0.475341 1.36101 1.38295C0.446368 2.29533 0.131926 3.42856 0.0730192 4.71732C0.0364016 5.52171 -0.177719 11.5986 0.443185 13.1923C0.861897 14.2675 1.68656 15.0941 2.77155 15.5142C3.27783 15.7111 3.85576 15.8444 4.70354 15.8833C11.7922 16.2041 14.4199 16.0295 15.5279 13.1923C15.7246 12.6873 15.8599 12.1099 15.8973 11.2642C16.2213 4.15737 15.8448 2.61692 14.6093 1.38295C13.6294 0.405461 12.4768 -0.259937 4.70354 0.0981834ZM4.76879 14.454C3.99267 14.4191 3.57157 14.2898 3.29057 14.181C2.5837 13.9063 2.05275 13.3775 1.77971 12.6747C1.30687 11.4638 1.46369 5.71242 1.50588 4.78178C1.54727 3.87019 1.73195 3.03707 2.37514 2.39389C3.17117 1.59982 4.19963 1.21066 11.2023 1.5267C12.1162 1.56799 12.9512 1.75229 13.596 2.39389C14.392 3.18794 14.7868 4.22432 14.4653 11.2001C14.4302 11.9743 14.3005 12.3944 14.1914 12.6747C13.471 14.5209 11.8137 14.7772 4.76879 14.454ZM11.2795 3.7517C11.2795 4.27737 11.707 4.70482 12.2348 4.70482C12.7626 4.70482 13.1908 4.27737 13.1908 3.7517C13.1908 3.22604 12.7626 2.79896 12.2348 2.79896C11.707 2.79896 11.2795 3.22604 11.2795 3.7517ZM3.89795 7.99037C3.89795 10.2423 5.72802 12.0681 7.98557 12.0681C10.2431 12.0681 12.0732 10.2423 12.0732 7.99037C12.0732 5.73842 10.2431 3.91381 7.98557 3.91381C5.72802 3.91381 3.89795 5.73842 3.89795 7.99037ZM5.33239 7.99037C5.33239 6.52931 6.52008 5.34389 7.98557 5.34389C9.45106 5.34389 10.6387 6.52931 10.6387 7.99037C10.6387 9.45224 9.45106 10.638 7.98557 10.638C6.52008 10.638 5.33239 9.45224 5.33239 7.99037Z" fill="white"/>
</g>
<defs>
<clipPath id="clip0_649_4817">
<rect width="16" height="16" fill="white"/>
</clipPath>
</defs>
</svg>
