<svg width="16" height="16" viewBox="0 0 16 16" fill="none" xmlns="http://www.w3.org/2000/svg">
<g clip-path="url(#clip0_649_4831)">
<path fill-rule="evenodd" clip-rule="evenodd" d="M5.02419 14.4092C11.0618 14.4092 14.3642 9.48406 14.3642 5.21351C14.3642 5.07331 14.3642 4.93416 14.3546 4.79554C14.997 4.33871 15.5514 3.7715 15.9922 3.12249C15.3938 3.38399 14.7578 3.55548 14.1074 3.63109C14.7922 3.22703 15.305 2.59224 15.5506 1.8432C14.9058 2.21968 14.201 2.48539 13.4658 2.62796C12.2226 1.32678 10.1434 1.26374 8.82099 2.48773C7.96899 3.27693 7.60659 4.45363 7.87139 5.57601C5.23219 5.44526 2.77299 4.21815 1.10579 2.19945C0.234588 3.67625 0.680188 5.56481 2.12259 6.51312C1.60019 6.49815 1.08899 6.35968 0.632188 6.10921V6.15023C0.632988 7.68848 1.73459 9.013 3.26579 9.31781C2.78259 9.44777 2.27539 9.46661 1.78419 9.37288C2.21379 10.6898 3.44659 11.5918 4.85059 11.6178C3.68819 12.5173 2.25219 13.0057 0.773788 13.0041C0.512988 13.0033 0.252187 12.9884 -0.0078125 12.9576C1.49379 13.906 3.24019 14.4092 5.02419 14.4069" fill="white"/>
</g>
<defs>
<clipPath id="clip0_649_4831">
<rect width="16" height="16" fill="white"/>
</clipPath>
</defs>
</svg>
